<svg xmlns="http://www.w3.org/2000/svg" version="1.1" xmlns:xlink="http://www.w3.org/1999/xlink" xmlns:svgjs="http://svgjs.dev/svgjs" width="1000" height="1000" viewBox="0 0 1000 1000"><rect width="1000" height="1000" fill="#ffffff"></rect><g transform="matrix(0.7,0,0,0.7,149.5757576112175,464.236638150328)"><svg viewBox="0 0 396 40" data-background-color="#ffffff" preserveAspectRatio="xMidYMid meet" height="101" width="1000" xmlns="http://www.w3.org/2000/svg" xmlns:xlink="http://www.w3.org/1999/xlink"><g id="tight-bounds" transform="matrix(1,0,0,1,0.24000002006027898,0.2338680903377508)"><svg viewBox="0 0 395.52 39.53226381932453" height="39.53226381932453" width="395.52"><g><svg viewBox="0 0 447.93958145911824 44.77160626355095" height="39.53226381932453" width="395.52"><g transform="matrix(1,0,0,1,0,6.187682197060951)"><svg viewBox="0 0 395.52 32.39624186942905" height="32.39624186942905" width="395.52"><g><svg viewBox="0 0 395.52 32.39624186942905" height="32.39624186942905" width="395.52"><g><svg viewBox="0 0 395.52 32.39624186942905" height="32.39624186942905" width="395.52"><g transform="matrix(1,0,0,1,0,0)"><svg width="395.52" viewBox="2.200000047683716 -33.5 415.0699768066406 34" height="32.39624186942905" data-palette-color="#1e55b3"><path d="M18.25 0L2.2 0 2.2-0.8 6.45-2.85 6.45-30.15 2.2-32.2 2.2-33 18.25-33 18.25-32.2 14-30.15 14-2.85 18.25-0.8 18.25 0ZM27.2 0L14-16.65 27.7-30.35 24-32.2 24-33 35.8-33 35.8-32.2 32.5-30.8 20.9-19.65 34.8-2.25 38.3-0.8 38.3 0 27.2 0ZM59.85 0.5L59.85 0.5Q55.5 0.5 52.2-0.93 48.9-2.35 47.05-5.58 45.2-8.8 45.2-14.2L45.2-14.2 45.2-30.15 40.9-32.2 40.9-33 57.05-33 57.05-32.2 52.75-30.15 52.75-14.15Q52.75-10 54.02-7.63 55.3-5.25 57.47-4.25 59.65-3.25 62.3-3.25L62.3-3.25Q64.5-3.25 66.4-4.15 68.3-5.05 69.45-7.08 70.6-9.1 70.6-12.4L70.6-12.4 70.6-30.25 65.9-32.2 65.9-33 78.4-33 78.4-32.2 74.1-30.2 74.1-14.2Q74.1-8.8 72.3-5.58 70.5-2.35 67.3-0.93 64.1 0.5 59.85 0.5ZM94.15 0.5L94.15 0.5Q90.85 0.5 88.32-0.18 85.8-0.85 83.45-2.05L83.45-2.05 82.95-10.5 83.85-10.5 87.4-4.35Q88.75-3.25 90.32-2.65 91.9-2.05 93.55-2.05L93.55-2.05Q96.25-2.05 97.95-3.33 99.65-4.6 99.65-7.1L99.65-7.1Q99.65-8.8 98.87-9.9 98.1-11 96.3-11.98 94.5-12.95 91.35-14.35L91.35-14.35Q87.8-15.9 85.9-18.05 84-20.2 84-23.4L84-23.4Q84-25.4 85.02-27.23 86.05-29.05 87.77-30.48 89.5-31.9 91.62-32.7 93.75-33.5 96-33.5L96-33.5Q98.55-33.5 100.9-32.9 103.25-32.3 105.25-31.2L105.25-31.2 105.75-23.2 104.9-23.2 101.4-28.85Q100.1-29.85 98.87-30.38 97.65-30.9 96.1-30.9L96.1-30.9Q94.05-30.9 92.7-29.6 91.35-28.3 91.35-26.15L91.35-26.15Q91.35-24.1 92.82-22.78 94.3-21.45 97.95-19.8L97.95-19.8Q102.5-17.7 104.65-15.5 106.8-13.3 106.8-9.7L106.8-9.7Q106.8-6.5 104.95-4.2 103.1-1.9 100.2-0.7 97.3 0.5 94.15 0.5ZM127.09 0L111.39 0 111.39-0.8 115.64-2.85 115.64-30.15 111.39-32.2 111.39-33 127.09-33 127.09-32.2 123.19-30.15 123.19-18.35 137.04-18.35 137.04-30.15 133.04-32.2 133.04-33 148.79-33 148.79-32.2 144.59-30.15 144.59-2.85 148.79-0.8 148.79 0 133.04 0 133.04-0.8 137.04-2.85 137.04-15.6 123.19-15.6 123.19-2.85 127.09-0.8 127.09 0ZM162.79 0L151.94 0 151.94-0.8 154.99-2.5 168.04-33.25 172.44-33.25 185.34-2.6 188.74-0.8 188.74 0 172.94 0 172.94-0.8 177.29-2.6 173.89-10.9 162.04-10.9 158.64-2.6 162.79-0.8 162.79 0ZM167.99-25.3L163.19-13.65 172.74-13.65 167.99-25.3ZM219.54 0L191.89 0 191.89-0.8 196.14-2.85 196.14-30.15 191.89-32.2 191.89-33 208.44-33 208.44-32.2 203.69-30.15 203.69-2.75 214.69-2.75 218.74-12.2 219.54-12.2 219.54 0ZM254.03 0L236.83 0 236.83-0.8 241.08-2.85 241.08-30.15 236.83-32.2 236.83-33 252.83-33Q256.43-33 259.26-32.18 262.08-31.35 263.71-29.73 265.33-28.1 265.33-25.6L265.33-25.6Q265.33-23.05 263.41-20.9 261.48-18.75 257.88-17.9L257.88-17.9Q262.73-17.25 265.51-15.08 268.28-12.9 268.28-9.6L268.28-9.6Q268.28-6.85 266.43-4.67 264.58-2.5 261.36-1.25 258.13 0 254.03 0L254.03 0ZM250.33-30.25L250.33-30.25 248.63-30.25 248.63-18.25 250.63-18.25Q253.93-18.25 255.78-19.83 257.63-21.4 257.63-24.1L257.63-24.1Q257.63-30.25 250.33-30.25ZM252.08-15.8L252.08-15.8 248.63-15.8 248.63-2.75 252.43-2.75Q256.13-2.75 258.21-4.6 260.28-6.45 260.28-9.35L260.28-9.35Q260.28-12.65 258.16-14.23 256.03-15.8 252.08-15.8ZM281.73 0L270.88 0 270.88-0.8 273.93-2.5 286.98-33.25 291.38-33.25 304.28-2.6 307.68-0.8 307.68 0 291.88 0 291.88-0.8 296.23-2.6 292.83-10.9 280.98-10.9 277.58-2.6 281.73-0.8 281.73 0ZM286.93-25.3L282.13-13.65 291.68-13.65 286.93-25.3ZM327.53 0L310.83 0 310.83-0.8 315.08-2.85 315.08-30.15 310.83-32.2 310.83-33 327.88-33Q333.83-33 337.98-31.05 342.13-29.1 344.3-25.7 346.48-22.3 346.48-18L346.48-18Q346.48-14.1 345.05-10.8 343.63-7.5 341.08-5.1 338.53-2.7 335.08-1.35 331.63 0 327.53 0L327.53 0ZM325.83-30.25L325.83-30.25 322.63-30.25 322.63-2.75 326.53-2.75Q332.33-2.75 335.48-6.48 338.63-10.2 338.63-16.45L338.63-16.45Q338.63-22.75 335.4-26.5 332.18-30.25 325.83-30.25ZM360.53 0L349.68 0 349.68-0.8 352.73-2.5 365.78-33.25 370.18-33.25 383.08-2.6 386.48-0.8 386.48 0 370.68 0 370.68-0.8 375.03-2.6 371.63-10.9 359.78-10.9 356.38-2.6 360.53-0.8 360.53 0ZM365.73-25.3L360.93-13.65 370.48-13.65 365.73-25.3ZM417.27 0L389.62 0 389.62-0.8 393.87-2.85 393.87-30.15 389.62-32.2 389.62-33 406.17-33 406.17-32.2 401.42-30.15 401.42-2.75 412.42-2.75 416.47-12.2 417.27-12.2 417.27 0Z" opacity="1" transform="matrix(1,0,0,1,0,0)" fill="#1e55b3" class="undefined-text-0" data-fill-palette-color="primary" id="text-0"></path></svg></g></svg></g></svg></g></svg></g><g transform="matrix(1,0,0,1,403.1679751955673,0)"><svg viewBox="0 0 44.77160626355095 44.77160626355095" height="44.77160626355095" width="44.77160626355095"><g data-palette-color="#ff585f"><rect width="12.237572378703925" height="44.77160626355095" fill="#ff585f" stroke="transparent" data-fill-palette-color="accent" x="0" fill-opacity="1"></rect><rect width="12.237572378703925" height="44.77160626355095" fill="#ff585f" stroke="transparent" data-fill-palette-color="accent" x="14.923868754516981" fill-opacity="0.75"></rect><rect width="12.237572378703925" height="44.77160626355095" fill="#ff585f" stroke="transparent" data-fill-palette-color="accent" x="29.847737509033962" fill-opacity="0.5"></rect></g></svg></g></svg></g><defs></defs></svg><rect width="395.52" height="39.53226381932453" fill="none" stroke="none" visibility="hidden"></rect></g></svg></g></svg>